<svg xmlns="http://www.w3.org/2000/svg" xmlns:xlink="http://www.w3.org/1999/xlink" width="400" height="400" viewBox="0 0 400 400">
<rect data-name="background" width="100%" height="100%" fill="#000000"/><g data-name="container" data="container_num:1" fill="#FFFFFF" transform="translate(46.400000000000006, 46.400000000000006) scale(1.5321084781300425)"><path xmlns="http://www.w3.org/2000/svg" d="M100.254 0C44.974 0 0 44.974 0 100.254s44.974 100.254 100.254 100.254c55.28 0 100.254-44.974 100.254-100.254S155.534 0 100.254 0zm0 195.508C47.731 195.508 5 152.777 5 100.254S47.731 5 100.254 5s95.254 42.73 95.254 95.254-42.731 95.254-95.254 95.254z"/></g><g data-name="icon" fill="#FFFFFF" data="id:7278413" transform="translate(158.16005137789205, 140.86437837736287) scale(0.8367678941744527)">
  
 <path d="m89.887 23.457v8.1289h-8.0977v-8.1289c0-1.1211 0.91016-2.0312 2.0312-2.0312h4.0391c1.1172 0 2.0273 0.91016 2.0273 2.0312zm5.5508-15.23h-7.0586v-1.1172c0-1.4023-1.1406-2.5391-2.5391-2.5391-1.3984 0-2.5391 1.1328-2.5391 2.5391v1.1172h-7.0586c-1.4023 0-2.5391 1.1328-2.5391 2.5391s1.1328 2.5391 2.5391 2.5391h7.0586v4.082c0.16797-0.011719 0.33984-0.023438 0.51953-0.023438h4.0391c0.17188 0 0.34375 0.011719 0.51953 0.023438v-4.082h7.0586c1.3984 0 2.5391-1.1406 2.5391-2.5391s-1.1406-2.5391-2.5391-2.5391zm-56.344 53.926v6.7695h5.0781v-6.7695zm16.906 0v6.7695h5.0781v-6.7695zm-44.383-48.852v4.082c0.17187-0.011718 0.34375-0.023437 0.51953-0.023437h4.0391c0.17969 0 0.35156 0.011719 0.51953 0.023437v-4.082h7.0586c1.4023 0 2.5391-1.1406 2.5391-2.5391 0-1.3984-1.1328-2.5391-2.5391-2.5391h-7.0586v-1.1172c0-1.4023-1.1328-2.5391-2.5391-2.5391s-2.5391 1.1328-2.5391 2.5391v1.1172h-7.0508c-1.4023 0-2.5391 1.1328-2.5391 2.5391s1.1328 2.5391 2.5391 2.5391zm0.51953 8.1211c-1.1172 0-2.0273 0.91016-2.0273 2.0312v8.1289h8.0977v-8.1289c0-1.1211-0.91016-2.0312-2.0312-2.0312zm3.5352 26.438-4.7266 4.7305v19.219c0 2.207 1.7969 4 4 4 2.2812 0 4.0586-1.7891 4.0586-4v-13.645l4.8359-2.793-7.5156-7.5156h-0.64844zm68.172 0-7.5117 7.5156 4.8359 2.793v13.645c0 2.207 1.7969 4 4 4 2.2812 0 4.0586-1.7891 4.0586-4v-19.219l-4.7266-4.7305h-0.65625zm-28.754-6.6484 15.242-7.5156-1.0234-1.0195h-38.453l-1.0195 1.0195 15.242 7.5156zm39.672-5.5664h-19.211l-19.516 9.625h-11.91l-19.516-9.625-19.203 0.003907c-1.1172 0-2.0273 0.91016-2.0273 2.0312v4.0938c0 1.1172 0.91016 2.0312 2.0273 2.0312h12.602l16.32 16.32h31.516l16.32-16.32h12.602c1.1172 0 2.0273-0.91406 2.0273-2.0312v-4.0938c0-1.1211-0.91016-2.0312-2.0273-2.0312zm-25.375 38.758v17.574c0 1.8984-1.5547 3.4531-3.4531 3.4531h-31.699c-1.8984 0-3.4531-1.5547-3.4531-3.4531v-17.574c0-1.8984 1.5547-3.4531 3.4531-3.4531h31.699c1.8984 0 3.4531 1.5547 3.4531 3.4531zm-16.691 8.7891c0-5.0039-4.0508-9.0508-9.0508-9.0508-4.9961 0-9.0508 4.0469-9.0508 9.0508s4.0508 9.0508 9.0508 9.0508c4.9961 0 9.0508-4.0508 9.0508-9.0508zm-2.6133-61.77c-5.4492 0-10.234 2.8711-12.918 7.1914h25.84c-2.6836-4.3164-7.4648-7.1914-12.922-7.1914zm-6.4375 56.781c-2.7578 0-4.9922 2.2344-4.9922 4.9922 0 2.7578 2.2344 4.9844 4.9922 4.9844 2.7578 0 4.9844-2.2344 4.9844-4.9844s-2.2266-4.9922-4.9844-4.9922z" fill-rule="evenodd"/>

  </g><g data-name="business_name" fill="#FFFFFF" data="id:326" transform="translate(104.03326089356918, 238.7803386974747) scale(0.5009172231878131)"><path d="M21.015625,22.5q0,2.67578125-0.927734375,4.619140625t-2.5390625,3.203125t-3.76953125,1.85546875t-4.638671875,0.595703125q-0.95703125,0-2.099609375-0.25390625t-2.314453125-0.634765625t-2.255859375-0.8203125t-1.923828125-0.830078125l0.859375-7.65625q1.66015625,0.99609375,3.681640625,1.513671875t3.974609375,0.517578125q0.37109375,0,0.8984375-0.029296875t1.005859375-0.17578125t0.810546875-0.439453125t0.33203125-0.83984375q0-0.37109375-0.234375-0.634765625t-0.60546875-0.4296875t-0.83984375-0.25390625t-0.91796875-0.126953125t-0.83984375-0.0390625l-0.625,0q-1.6796875,0-3.056640625-0.52734375t-2.36328125-1.494140625t-1.533203125-2.34375t-0.546875-3.056640625q0-2.3046875,0.927734375-4.130859375t2.48046875-3.10546875t3.564453125-1.962890625t4.16015625-0.68359375q0.95703125,0,1.97265625,0.068359375t2.021484375,0.244140625t1.962890625,0.44921875t1.81640625,0.68359375l-0.7421875,7.9296875q-1.328125-0.44921875-2.783203125-0.751953125t-2.841796875-0.302734375q-0.25390625,0-0.654296875,0.009765625t-0.83984375,0.05859375t-0.888671875,0.146484375t-0.80078125,0.263671875t-0.56640625,0.439453125t-0.1953125,0.64453125q0.01953125,0.4296875,0.322265625,0.6640625t0.78125,0.341796875t1.0546875,0.107421875t1.142578125-0.029296875t1.0546875-0.05859375t0.80078125-0.009765625q1.5625,0.09765625,2.8125,0.6640625t2.119140625,1.50390625t1.328125,2.236328125t0.458984375,2.861328125z M45.44921875,31.71875l-9.765625,0.46875l-0.078125-8.2421875l-4.4921875,0l-0.2734375,8.5546875l-8.75,0l0.7421875-27.4609375l9.296875,0.4296875l-0.5859375,14.0234375l4.3359375,0l0.0390625-14.6875l8.90625,0.234375z M71.4453125,17.5390625q0,1.77734375-0.41015625,3.427734375t-1.181640625,3.095703125t-1.875,2.646484375t-2.48046875,2.060546875t-2.998046875,1.337890625t-3.4375,0.478515625q-1.7578125,0-3.349609375-0.44921875t-2.978515625-1.259765625t-2.509765625-1.953125t-1.9140625-2.5390625t-1.23046875-2.998046875t-0.439453125-3.33984375q0-1.69921875,0.41015625-3.330078125t1.181640625-3.076171875t1.865234375-2.65625t2.451171875-2.08984375t2.939453125-1.3671875t3.33984375-0.48828125q2.83203125,0,5.166015625,0.87890625t3.984375,2.509765625t2.55859375,3.9453125t0.908203125,5.166015625z M62.7734375,18.046875q0-0.83984375-0.244140625-1.630859375t-0.712890625-1.40625t-1.162109375-0.99609375t-1.591796875-0.380859375q-0.91796875,0-1.640625,0.33203125t-1.240234375,0.908203125t-0.791015625,1.34765625t-0.2734375,1.630859375q0,0.8203125,0.234375,1.640625t0.703125,1.484375t1.162109375,1.07421875t1.611328125,0.41015625t1.650390625-0.361328125t1.240234375-0.9765625t0.78125-1.416015625t0.2734375-1.66015625z M91.4453125,5.8203125l-0.703125,8.2421875q-0.56640625-0.15625-1.11328125-0.21484375t-1.11328125-0.05859375q-1.38671875,0-2.646484375,0.3515625t-2.2265625,1.07421875t-1.54296875,1.826171875t-0.576171875,2.607421875q0,1.09375,0.322265625,1.904296875t0.91796875,1.34765625t1.4453125,0.810546875t1.884765625,0.2734375q0.72265625,0,1.484375-0.146484375t1.5234375-0.400390625t1.46484375-0.5859375t1.30859375-0.703125l-0.3125,9.1796875q-0.76171875,0.390625-1.640625,0.693359375t-1.806640625,0.52734375t-1.85546875,0.341796875t-1.767578125,0.1171875q-2.7734375,0-5.048828125-1.03515625t-3.90625-2.822265625t-2.529296875-4.150390625t-0.8984375-5.0390625q0-3.203125,0.908203125-5.9765625t2.67578125-4.814453125t4.375-3.203125t5.986328125-1.162109375q1.34765625,0,2.734375,0.21484375t2.65625,0.80078125z M117.32421875,7.265625l-8.6328125,10.2734375l7.9296875,13.4375l-9.0625,1.6015625l-5.9375-8.046875l-0.3125,7.65625l-8.125,0.3125l0.625-27.96875l9.1015625,0.5078125l-0.703125,8.046875l5.6640625-8.1640625z M127.6171875,5l-1.3671875,26.6015625l-8.2421875,0.4296875l-0.78125-26.484375z M163.33984375,19.2578125q0,2.79296875-0.17578125,5.56640625t-0.41015625,5.56640625l-10.0390625,0.46875q0.44921875-3.3984375,0.810546875-6.806640625t0.361328125-6.826171875q0-0.21484375-0.01953125-0.751953125t-0.068359375-1.220703125t-0.13671875-1.416015625t-0.234375-1.34765625t-0.361328125-1.005859375t-0.5078125-0.390625q-0.68359375,0-1.07421875,0.517578125t-0.576171875,1.240234375t-0.224609375,1.474609375t-0.0390625,1.220703125q0,0.8203125,0.0390625,1.640625t0.0390625,1.6796875q0,3.02734375-0.146484375,6.03515625t-0.361328125,6.03515625l-9.2578125,0.3515625q0.44921875-3.3984375,0.791015625-6.787109375t0.341796875-6.806640625q0-0.21484375-0.01953125-0.78125t-0.068359375-1.26953125t-0.146484375-1.46484375t-0.244140625-1.396484375t-0.361328125-1.044921875t-0.52734375-0.41015625q-0.48828125,0-0.8203125,0.380859375t-0.537109375,0.986328125t-0.3125,1.337890625t-0.15625,1.435546875t-0.05859375,1.298828125t-0.029296875,0.888671875l-0.4296875,14.2578125l-9.84375,0q0.3125-3.30078125,0.634765625-6.62109375t0.56640625-6.630859375t0.400390625-6.630859375t0.15625-6.640625l9.296875-0.390625l-0.0390625,2.265625q0.4296875-0.546875,0.9765625-1.103515625t1.162109375-0.99609375t1.30859375-0.712890625t1.435546875-0.2734375q0.95703125,0,1.71875,0.146484375t1.376953125,0.498046875t1.083984375,0.966796875t0.8203125,1.552734375q0.625-0.68359375,1.259765625-1.26953125t1.337890625-1.005859375t1.5234375-0.654296875t1.81640625-0.234375q1.89453125,0,3.22265625,0.732421875t2.216796875,1.943359375t1.38671875,2.7734375t0.751953125,3.2421875t0.322265625,3.33984375t0.068359375,3.046875z M187.87109375,14.4921875q0,1.89453125-0.56640625,3.359375t-1.552734375,2.568359375t-2.314453125,1.85546875t-2.841796875,1.23046875t-3.134765625,0.703125t-3.18359375,0.244140625l0,8.3203125l-9.1015625,0q0-2.2265625,0.009765625-4.3359375t0.01953125-4.189453125t0.01953125-4.189453125t0.029296875-4.35546875q0.0390625-2.3828125,0.01953125-4.765625t0.09765625-4.8046875q2.5-0.7421875,5-1.11328125t5.15625-0.37109375q1.50390625,0,3.0078125,0.244140625t2.880859375,0.771484375t2.55859375,1.318359375t2.041015625,1.884765625t1.357421875,2.5t0.498046875,3.125z M179.19921875,15.15625q0-1.26953125-0.771484375-1.982421875t-2.001953125-0.712890625q-0.41015625,0-0.849609375,0.068359375t-0.830078125,0.166015625l-0.234375,5.703125q0.2734375,0.0390625,0.52734375,0.0390625l0.52734375,0q0.703125,0,1.357421875-0.234375t1.162109375-0.673828125t0.810546875-1.03515625t0.302734375-1.337890625z M213.61328125,30.8203125l-9.6875,1.25l-1.171875-4.4140625l-4.453125,0l-0.9765625,4.4140625l-9.9609375-0.9765625l7.7734375-26.015625l10.859375-0.546875z M202.05078125,21.6796875l-1.484375-6.796875l-1.4453125,6.796875l2.9296875,0z M232.65625,5.8203125l-0.703125,8.2421875q-0.56640625-0.15625-1.11328125-0.21484375t-1.11328125-0.05859375q-1.38671875,0-2.646484375,0.3515625t-2.2265625,1.07421875t-1.54296875,1.826171875t-0.576171875,2.607421875q0,1.09375,0.322265625,1.904296875t0.91796875,1.34765625t1.4453125,0.810546875t1.884765625,0.2734375q0.72265625,0,1.484375-0.146484375t1.5234375-0.400390625t1.46484375-0.5859375t1.30859375-0.703125l-0.3125,9.1796875q-0.76171875,0.390625-1.640625,0.693359375t-1.806640625,0.52734375t-1.85546875,0.341796875t-1.767578125,0.1171875q-2.7734375,0-5.048828125-1.03515625t-3.90625-2.822265625t-2.529296875-4.150390625t-0.8984375-5.0390625q0-3.203125,0.908203125-5.9765625t2.67578125-4.814453125t4.375-3.203125t5.986328125-1.162109375q1.34765625,0,2.734375,0.21484375t2.65625,0.80078125z M255.21484375,4.9609375l-0.1953125,8.28125l-5.8203125,0.234375l-0.703125,18.125l-8.2421875,0.4296875l-0.7421875-18.125l-5.8203125,0.3125l0.234375-9.21875z M280.95703125,30.8203125l-9.6875,1.25l-1.171875-4.4140625l-4.453125,0l-0.9765625,4.4140625l-9.9609375-0.9765625l7.7734375-26.015625l10.859375-0.546875z M269.39453125,21.6796875l-1.484375-6.796875l-1.4453125,6.796875l2.9296875,0z M303.1640625,16.71875q0,1.69921875-0.234375,3.3984375q-3.33984375,0.21484375-6.640625,0.693359375t-6.6015625,0.947265625q0.5078125,1.40625,1.591796875,2.24609375t2.587890625,0.83984375q0.78125,0,1.708984375-0.29296875t1.845703125-0.732421875t1.7578125-0.947265625t1.4453125-0.91796875l-0.9375,8.8671875q-0.76171875,0.5859375-1.650390625,0.99609375t-1.845703125,0.6640625t-1.93359375,0.37109375t-1.9140625,0.1171875q-1.93359375,0-3.53515625-0.52734375t-2.900390625-1.474609375t-2.275390625-2.236328125t-1.62109375-2.8125t-0.9765625-3.22265625t-0.33203125-3.4375q0-1.81640625,0.33203125-3.6328125t1.005859375-3.49609375t1.69921875-3.115234375t2.392578125-2.509765625t3.095703125-1.6796875t3.818359375-0.60546875q1.73828125,0,3.173828125,0.478515625t2.55859375,1.328125t1.953125,2.021484375t1.3671875,2.568359375t0.80078125,2.94921875t0.263671875,3.154296875z M295.3515625,15.703125q0-0.546875-0.1171875-1.123046875t-0.380859375-1.044921875t-0.693359375-0.771484375t-1.07421875-0.302734375q-0.78125,0-1.376953125,0.419921875t-1.025390625,1.0546875t-0.703125,1.376953125t-0.41015625,1.3671875l5.78125-0.546875l0-0.4296875z M327.32421875,13.671875q0,1.5234375-0.263671875,2.763671875t-0.830078125,2.275390625t-1.46484375,1.9140625t-2.16796875,1.6796875l4.6484375,8.28125l-8.7890625,1.71875l-3.0078125-8.3203125l-2.421875,0.078125l-0.3515625,8.125l-8.3984375,0q0.09765625-4.453125,0.185546875-8.8671875t0.205078125-8.8671875q0.0390625-2.24609375,0.078125-4.453125t0.15625-4.453125q1.3671875-0.5078125,2.6953125-0.83984375t2.666015625-0.517578125t2.71484375-0.25390625t2.822265625-0.068359375q2.2265625,0,4.306640625,0.615234375t3.681640625,1.845703125t2.568359375,3.06640625t0.966796875,4.27734375z M318.57421875,14.296875q0-0.8203125-0.224609375-1.50390625t-0.6640625-1.181640625t-1.09375-0.78125t-1.533203125-0.283203125q-0.390625,0-0.76171875,0.048828125t-0.72265625,0.146484375l-0.3125,7.265625l0.46875,0q0.83984375,0,1.708984375-0.21484375t1.5625-0.6640625t1.1328125-1.15234375t0.439453125-1.6796875z M338.8671875,5l-1.3671875,26.6015625l-8.2421875,0.4296875l-0.78125-26.484375z M365.078125,30.8203125l-9.6875,1.25l-1.171875-4.4140625l-4.453125,0l-0.9765625,4.4140625l-9.9609375-0.9765625l7.7734375-26.015625l10.859375-0.546875z M353.515625,21.6796875l-1.484375-6.796875l-1.4453125,6.796875l2.9296875,0z M382.6171875,22.1484375l-0.8203125,8.671875l-16.4453125,1.2890625l0.625-27.890625l10.15625,0l-1.4453125,17.9296875l7.9296875,0z"/></g></svg>