<svg xmlns="http://www.w3.org/2000/svg" xmlns:xlink="http://www.w3.org/1999/xlink" width="400" height="400" viewBox="0 0 400 400"><g data-name="icon" fill="#25a6be" data="id:7278413" transform="translate(12.395334273616076, 12.408101979277145) scale(3.7519539637823636)">
  
 <path d="m89.887 23.457v8.1289h-8.0977v-8.1289c0-1.1211 0.91016-2.0312 2.0312-2.0312h4.0391c1.1172 0 2.0273 0.91016 2.0273 2.0312zm5.5508-15.23h-7.0586v-1.1172c0-1.4023-1.1406-2.5391-2.5391-2.5391-1.3984 0-2.5391 1.1328-2.5391 2.5391v1.1172h-7.0586c-1.4023 0-2.5391 1.1328-2.5391 2.5391s1.1328 2.5391 2.5391 2.5391h7.0586v4.082c0.16797-0.011719 0.33984-0.023438 0.51953-0.023438h4.0391c0.17188 0 0.34375 0.011719 0.51953 0.023438v-4.082h7.0586c1.3984 0 2.5391-1.1406 2.5391-2.5391s-1.1406-2.5391-2.5391-2.5391zm-56.344 53.926v6.7695h5.0781v-6.7695zm16.906 0v6.7695h5.0781v-6.7695zm-44.383-48.852v4.082c0.17187-0.011718 0.34375-0.023437 0.51953-0.023437h4.0391c0.17969 0 0.35156 0.011719 0.51953 0.023437v-4.082h7.0586c1.4023 0 2.5391-1.1406 2.5391-2.5391 0-1.3984-1.1328-2.5391-2.5391-2.5391h-7.0586v-1.1172c0-1.4023-1.1328-2.5391-2.5391-2.5391s-2.5391 1.1328-2.5391 2.5391v1.1172h-7.0508c-1.4023 0-2.5391 1.1328-2.5391 2.5391s1.1328 2.5391 2.5391 2.5391zm0.51953 8.1211c-1.1172 0-2.0273 0.91016-2.0273 2.0312v8.1289h8.0977v-8.1289c0-1.1211-0.91016-2.0312-2.0312-2.0312zm3.5352 26.438-4.7266 4.7305v19.219c0 2.207 1.7969 4 4 4 2.2812 0 4.0586-1.7891 4.0586-4v-13.645l4.8359-2.793-7.5156-7.5156h-0.64844zm68.172 0-7.5117 7.5156 4.8359 2.793v13.645c0 2.207 1.7969 4 4 4 2.2812 0 4.0586-1.7891 4.0586-4v-19.219l-4.7266-4.7305h-0.65625zm-28.754-6.6484 15.242-7.5156-1.0234-1.0195h-38.453l-1.0195 1.0195 15.242 7.5156zm39.672-5.5664h-19.211l-19.516 9.625h-11.91l-19.516-9.625-19.203 0.003907c-1.1172 0-2.0273 0.91016-2.0273 2.0312v4.0938c0 1.1172 0.91016 2.0312 2.0273 2.0312h12.602l16.32 16.32h31.516l16.32-16.32h12.602c1.1172 0 2.0273-0.91406 2.0273-2.0312v-4.0938c0-1.1211-0.91016-2.0312-2.0273-2.0312zm-25.375 38.758v17.574c0 1.8984-1.5547 3.4531-3.4531 3.4531h-31.699c-1.8984 0-3.4531-1.5547-3.4531-3.4531v-17.574c0-1.8984 1.5547-3.4531 3.4531-3.4531h31.699c1.8984 0 3.4531 1.5547 3.4531 3.4531zm-16.691 8.7891c0-5.0039-4.0508-9.0508-9.0508-9.0508-4.9961 0-9.0508 4.0469-9.0508 9.0508s4.0508 9.0508 9.0508 9.0508c4.9961 0 9.0508-4.0508 9.0508-9.0508zm-2.6133-61.77c-5.4492 0-10.234 2.8711-12.918 7.1914h25.84c-2.6836-4.3164-7.4648-7.1914-12.922-7.1914zm-6.4375 56.781c-2.7578 0-4.9922 2.2344-4.9922 4.9922 0 2.7578 2.2344 4.9844 4.9922 4.9844 2.7578 0 4.9844-2.2344 4.9844-4.9844s-2.2266-4.9922-4.9844-4.9922z" fill-rule="evenodd"/>

  </g></svg>